<svg width="16" height="23" viewBox="0 0 16 23" fill="none" xmlns="http://www.w3.org/2000/svg">
<g clip-path="url(#clip0_4_837)">
<path d="M7.99976 0.588867C12.0235 0.588867 15.2778 3.84255 15.2781 7.86621C15.2781 9.22335 14.8225 10.781 14.1062 12.3799C13.3928 13.9723 12.4371 15.5701 11.4744 16.9971C10.5126 18.4225 9.54957 19.6691 8.8269 20.5596C8.4908 20.9737 8.20662 21.3098 7.99976 21.5508C7.79293 21.3098 7.50947 20.9734 7.17358 20.5596C6.45093 19.6692 5.48786 18.4225 4.52612 16.9971C3.56334 15.5701 2.60768 13.9723 1.89429 12.3799C1.17798 10.781 0.722412 9.22336 0.722412 7.86621C0.722647 3.8427 3.97624 0.5891 7.99976 0.588867ZM7.99976 4.58887C6.19062 4.5891 4.72265 6.05708 4.72241 7.86621C4.72241 9.67554 6.19048 11.1443 7.99976 11.1445C9.80924 11.1445 11.2781 9.67568 11.2781 7.86621C11.2778 6.05694 9.80909 4.58887 7.99976 4.58887Z" fill="black" stroke="white"/>
</g>
<defs>
<clipPath id="clip0_4_837">
<rect width="16" height="22.4" fill="white"/>
</clipPath>
</defs>
</svg>
