<svg width="38" height="38" viewBox="0 0 38 38" fill="none" xmlns="http://www.w3.org/2000/svg">
<g clip-path="url(#clip0_4_1002)">
<path fill-rule="evenodd" clip-rule="evenodd" d="M19 0C29.4934 0 38 8.50658 38 19C38 29.4934 29.4934 38 19 38C8.50658 38 0 29.4934 0 19C0 8.50658 8.50658 0 19 0Z" fill="black"/>
<path d="M23.6491 11.6929H26.128L20.7121 17.8832L27.0838 26.3067H22.0946L18.1872 21.1978L13.7161 26.3067H11.2355L17.0285 19.6855L10.9162 11.6929H16.0317L19.5638 16.3625L23.6491 11.6929ZM22.7789 24.8228H24.1527L15.2854 13.0989H13.8114L22.7789 24.8228Z" fill="white"/>
</g>
<defs>
<clipPath id="clip0_4_1002">
<rect width="38" height="38" fill="white"/>
</clipPath>
</defs>
</svg>
