<svg width="38" height="38" viewBox="0 0 38 38" fill="none" xmlns="http://www.w3.org/2000/svg">
<g clip-path="url(#clip0_4_1010)">
<path d="M18.9955 37.9993C22.7536 38.0002 26.4276 36.8867 29.5527 34.7995C32.6779 32.7123 35.1139 29.7452 36.5527 26.2735C37.9913 22.8018 38.3679 18.9815 37.6348 15.2958C36.9024 11.6099 35.0934 8.2241 32.4366 5.56644C29.7795 2.90908 26.3942 1.09907 22.7087 0.365187C19.0229 -0.367978 15.2024 0.00807535 11.7303 1.44581C8.25799 2.88351 5.29022 5.31894 3.20254 8.4439C1.11457 11.5685 7.76452e-05 15.242 0 19C0 21.4945 0.490586 23.9653 1.44504 26.2705C2.3991 28.5756 3.79806 30.6701 5.56195 32.4344C7.32594 34.1988 9.42017 35.5984 11.7251 36.5535C14.0301 37.5083 16.5006 37.9996 18.9955 37.9993Z" fill="#FF0000"/>
<path d="M18.9955 8.9967C20.9757 8.99447 22.9113 9.57932 24.559 10.677C26.2066 11.7753 27.4913 13.3377 28.2506 15.1665C29.0099 16.995 29.2095 19.0076 28.8243 20.9496C28.4403 22.8922 27.4876 24.6767 26.0872 26.0767C24.6879 27.4777 22.9043 28.4321 20.9623 28.819C19.0205 29.2054 17.0076 29.0071 15.1785 28.249C13.3494 27.4916 11.7861 26.2083 10.6868 24.5619C9.58701 22.9154 9.00019 20.9798 9.00051 18.9999C9.00496 16.3496 10.0581 13.8083 11.9314 11.9335C13.8047 10.0584 16.345 9.00232 18.9955 8.9967ZM15.3277 24.6146L25.0451 18.9999L15.3277 13.3897V24.6146ZM18.9955 7.46631C16.7133 7.46631 14.4823 8.14318 12.5845 9.41084C10.6871 10.6789 9.20842 12.4812 8.33551 14.5898C7.46219 16.6981 7.23386 19.0181 7.67942 21.2562C8.12515 23.4944 9.22437 25.5503 10.8382 27.164C12.4524 28.7774 14.5089 29.8759 16.7475 30.3205C18.9858 30.7653 21.3057 30.5362 23.4138 29.6622C25.522 28.7885 27.3236 27.309 28.5905 25.4109C29.858 23.5131 30.5339 21.282 30.5329 18.9999C30.5329 17.4844 30.2345 15.9844 29.6548 14.5846C29.0749 13.1852 28.225 11.9136 27.1537 10.8425C26.0819 9.77171 24.8099 8.92233 23.4101 8.34283C22.0104 7.76367 20.5103 7.46583 18.9955 7.46631Z" fill="white"/>
</g>
<defs>
<clipPath id="clip0_4_1010">
<rect width="38" height="38" fill="white"/>
</clipPath>
</defs>
</svg>
